<svg width="64" height="64" viewBox="0 0 64 64" fill="none" xmlns="http://www.w3.org/2000/svg">
  <!-- Background circle -->
  <circle cx="32" cy="32" r="30" fill="url(#gradient)" stroke="#1976d2" stroke-width="2"/>
  
  <!-- Camera body -->
  <rect x="16" y="20" width="32" height="24" rx="4" fill="#ffffff" stroke="#1976d2" stroke-width="1.5"/>
  
  <!-- Camera lens -->
  <circle cx="32" cy="32" r="8" fill="#f5f5f5" stroke="#1976d2" stroke-width="1.5"/>
  <circle cx="32" cy="32" r="5" fill="#e0e0e0" stroke="#1976d2" stroke-width="1"/>
  
  <!-- Edit tools overlay -->
  <!-- Crop tool -->
  <rect x="40" y="12" width="8" height="8" fill="none" stroke="#ff6b35" stroke-width="1.5" stroke-dasharray="2,2"/>
  <line x1="44" y1="12" x2="44" y2="20" stroke="#ff6b35" stroke-width="1.5"/>
  <line x1="40" y1="16" x2="48" y2="16" stroke="#ff6b35" stroke-width="1.5"/>
  
  <!-- Brush tool -->
  <path d="M12 44 Q16 40 20 44 Q24 48 20 52 Q16 56 12 52 Q8 48 12 44" fill="#4caf50" stroke="#2e7d32" stroke-width="1"/>
  
  <!-- Text tool -->
  <rect x="44" y="44" width="8" height="6" fill="none" stroke="#9c27b0" stroke-width="1.5"/>
  <line x1="46" y1="46" x2="50" y2="46" stroke="#9c27b0" stroke-width="1"/>
  <line x1="47" y1="47" x2="49" y2="47" stroke="#9c27b0" stroke-width="1"/>
  
  <!-- Gradient definition -->
  <defs>
    <linearGradient id="gradient" x1="0%" y1="0%" x2="100%" y2="100%">
      <stop offset="0%" style="stop-color:#2196f3;stop-opacity:1" />
      <stop offset="100%" style="stop-color:#1976d2;stop-opacity:1" />
    </linearGradient>
  </defs>
</svg> 