<svg width="48" height="48" viewBox="0 0 48 48" fill="none" xmlns="http://www.w3.org/2000/svg">
  <!-- Camera Body -->
  <rect x="8" y="16" width="32" height="24" rx="4" fill="#2C3E50" stroke="#34495E" stroke-width="1"/>
  
  <!-- Camera Lens -->
  <circle cx="24" cy="28" r="8" fill="#34495E" stroke="#2C3E50" stroke-width="1"/>
  <circle cx="24" cy="28" r="6" fill="#5D6D7E"/>
  <circle cx="24" cy="28" r="4" fill="#85929E"/>
  <circle cx="24" cy="28" r="2" fill="#AEB6BF"/>
  
  <!-- Camera Flash -->
  <rect x="30" y="18" width="6" height="4" rx="1" fill="#E74C3C"/>
  <circle cx="33" cy="20" r="1" fill="#F8F9F9"/>
  
  <!-- Camera Grip -->
  <rect x="36" y="20" width="3" height="12" rx="1" fill="#34495E"/>
  
  <!-- Camera Top -->
  <rect x="12" y="14" width="24" height="4" rx="2" fill="#34495E"/>
  
  <!-- Shutter Button -->
  <circle cx="24" cy="16" r="2" fill="#2C3E50"/>
  <circle cx="24" cy="16" r="1" fill="#5D6D7E"/>
  
  <!-- Viewfinder -->
  <rect x="14" y="18" width="4" height="3" rx="1" fill="#2C3E50"/>
  <rect x="15" y="19" width="2" height="1" fill="#5D6D7E"/>
  
  <!-- Edit/Edit Mode Indicator -->
  <circle cx="40" cy="12" r="4" fill="#3498DB"/>
  <path d="M38 12 L40 10 L42 12 L40 14 Z" fill="white"/>
  
  <!-- Camera Strap -->
  <path d="M8 20 Q4 18 4 16 Q4 14 8 12" stroke="#95A5A6" stroke-width="2" fill="none"/>
  <path d="M40 20 Q44 18 44 16 Q44 14 40 12" stroke="#95A5A6" stroke-width="2" fill="none"/>
</svg> 